<?xml version="1.0" encoding="UTF-8" standalone="no"?>
<!-- Created with Inkscape (http://www.inkscape.org/) -->

<svg
   xmlns:dc="http://purl.org/dc/elements/1.1/"
   xmlns:cc="http://creativecommons.org/ns#"
   xmlns:rdf="http://www.w3.org/1999/02/22-rdf-syntax-ns#"
   xmlns:svg="http://www.w3.org/2000/svg"
   xmlns="http://www.w3.org/2000/svg"
   xmlns:sodipodi="http://sodipodi.sourceforge.net/DTD/sodipodi-0.dtd"
   xmlns:inkscape="http://www.inkscape.org/namespaces/inkscape"
   width="210mm"
   height="297mm"
   id="svg2"
   version="1.1"
   inkscape:version="0.48.4 r9939"
   sodipodi:docname="新規ドキュメント 1">
  <defs
     id="defs4" />
  <sodipodi:namedview
     id="base"
     pagecolor="#ffffff"
     bordercolor="#666666"
     borderopacity="1.0"
     inkscape:pageopacity="0.0"
     inkscape:pageshadow="2"
     inkscape:zoom="0.70710678"
     inkscape:cx="576.36989"
     inkscape:cy="540"
     inkscape:document-units="px"
     inkscape:current-layer="layer1"
     showgrid="false"
     inkscape:window-width="1280"
     inkscape:window-height="738"
     inkscape:window-x="-8"
     inkscape:window-y="-8"
     inkscape:window-maximized="1" />
  <metadata
     id="metadata7">
    <rdf:RDF>
      <cc:Work
         rdf:about="">
        <dc:format>image/svg+xml</dc:format>
        <dc:type
           rdf:resource="http://purl.org/dc/dcmitype/StillImage" />
        <dc:title></dc:title>
      </cc:Work>
    </rdf:RDF>
  </metadata>
  <g
     inkscape:label="レイヤー 1"
     inkscape:groupmode="layer"
     id="layer1">
    <path
       style="fill:#ff0000;fill-opacity:1;stroke:#ff0000;stroke-width:4;stroke-linecap:butt;stroke-linejoin:miter;stroke-miterlimit:4;stroke-opacity:1;stroke-dasharray:none"
       d="m 115.76937,488.07651 471.42857,0"
       id="path2985"
       inkscape:connector-curvature="0" />
    <path
       style="fill:none;stroke:#000000;stroke-width:0.96616483px;stroke-linecap:butt;stroke-linejoin:miter;stroke-opacity:1"
       d="m 114.25245,540.93362 440.06652,0"
       id="path2985-0"
       inkscape:connector-curvature="0" />
    <path
       style="fill:none;stroke:#000000;stroke-width:0.96616483px;stroke-linecap:butt;stroke-linejoin:miter;stroke-opacity:1"
       d="m 114.25245,435.21933 440.06652,0"
       id="path2985-0-9"
       inkscape:connector-curvature="0" />
    <path
       style="fill:none;stroke:#000000;stroke-width:1px;stroke-linecap:butt;stroke-linejoin:miter;stroke-opacity:1"
       d="m 548.57143,438.07647 c 3.80952,-1.90476 7.61905,-3.80953 11.42857,-5.71429 0.95238,-0.95238 1.73648,-2.11003 2.85714,-2.85714 1.77193,-1.18128 3.94236,-1.67586 5.71429,-2.85714 1.17379,-0.78253 7.7889,-7.39764 8.57143,-8.57143 1.18128,-1.77193 1.67586,-3.94236 2.85714,-5.71429 0.74711,-1.12066 2.2548,-1.65246 2.85714,-2.85714 0.42592,-0.85184 -0.67343,-2.18371 0,-2.85714 1.50585,-1.50585 3.94236,-1.67586 5.71429,-2.85715 1.12066,-0.74711 1.90476,-1.90476 2.85714,-2.85714 0.95238,-0.95238 2.11004,-1.73648 2.85714,-2.85714 1.18129,-1.77193 1.3513,-4.20844 2.85715,-5.71429 0.67343,-0.67343 1.90476,0 2.85714,0 1.71605,0 8.31746,0 11.42857,0 13.33333,0 26.66667,0 40,0 0.95238,0 1.90476,0 2.85714,0 0.95239,0 2.18371,-0.67343 2.85715,0 0.67343,0.67344 -0.42592,2.00531 0,2.85715 0.59107,1.18214 7.36039,7.76407 8.57143,8.57142 4.16366,2.77578 5.95104,1.78372 8.57142,5.71429 1.18129,1.77192 1.67586,3.94236 2.85715,5.71429 1.49422,2.24132 4.50961,3.30493 5.71428,5.71428 0.42592,0.85184 0,1.90476 0,2.85714 0.95238,0.95238 2.25481,1.65247 2.85715,2.85715 0.42591,0.85183 -0.52829,2.06471 0,2.85714 1.90476,1.90476 3.80952,3.80952 5.71428,5.71429 0,0.95238 -0.42592,2.0053 0,2.85714 0.60234,1.20468 2.25481,1.65246 2.85714,2.85714 0.77005,1.5401 -0.77005,4.17419 0,5.71429 0.60234,1.20467 2.53048,1.55048 2.85715,2.85714 0.69296,2.77184 0,5.71429 0,8.57143 0,0.95238 -0.42592,2.00531 0,2.85714 0.60234,1.20468 2.2548,1.65247 2.85714,2.85714 0.89789,1.79578 -0.89789,9.6328 0,11.42858 0.60234,1.20467 2.2548,1.65246 2.85714,2.85714 0.88719,1.77438 -0.91539,15.31207 0,17.14286 0.60234,1.20467 2.25481,1.65246 2.85715,2.85714 0.43476,0.86952 0,7.28469 0,8.57143 0,8.57143 0,17.14285 0,25.71428 0,3.02235 0.49064,18.52808 0,20 -0.42592,1.27776 -1.90477,1.90476 -2.85715,2.85715 -4.39202,4.39202 -8.15777,9.38592 -14.28571,11.42857 -0.90351,0.30117 -2.18371,-0.67344 -2.85714,0 -1.50585,1.50584 -1.3513,4.20844 -2.85715,5.71428 -0.67343,0.67344 -2.0053,-0.42592 -2.85714,0 -1.20468,0.60234 -1.65247,2.25481 -2.85714,2.85715 -1.70105,0.85052 -11.8802,-0.80184 -14.28572,0 -2.0203,0.67343 -3.64828,2.34064 -5.71428,2.85714 -1.39198,0.34799 -9.91779,-0.75539 -11.42857,0 -1.20468,0.60234 -1.65247,2.2548 -2.85715,2.85714 -0.85183,0.42592 -1.90476,0 -2.85714,0 -0.95238,0 -1.90476,0 -2.85714,0 -3.80953,0 -7.61905,0 -11.42857,0 -1.90477,0 -3.80953,0 -5.71429,0 -0.95238,0 -2.85714,0.95238 -2.85714,0 0,-0.95238 3.80952,0 2.85714,0 -2.85714,0 -5.71429,0 -8.57143,0 -0.95238,0 -2.85714,0.95238 -2.85714,0 0,-0.95238 3.80952,0 2.85714,0 -3.22296,0 -19.02446,0.48777 -20,0 -1.20468,-0.60234 -1.65246,-2.2548 -2.85714,-2.85714 -1.70367,-0.85184 -4.01062,0.85183 -5.71429,0 -1.20467,-0.60234 -1.57939,-2.43123 -2.85714,-2.85714 -1.80702,-0.60234 -4.12943,1.05657 -5.71429,0 -1.77192,-1.18129 -1.35129,-4.20844 -2.85714,-5.71429 -0.67343,-0.67344 -2.00531,0.42592 -2.85714,0 -1.20468,-0.60234 -1.90476,-1.90476 -2.85714,-2.85714 -0.95239,-0.95238 -2.25481,-1.65247 -2.85715,-2.85715 -0.42591,-0.85183 0.42592,-2.0053 0,-2.85714 -0.60234,-1.20468 -2.2548,-1.65246 -2.85714,-2.85714 -0.42592,-0.85184 0.52829,-2.06472 0,-2.85714 -6.85747,-10.28622 -5.71429,-1.08356 -5.71429,-11.42858"
       id="path3834"
       inkscape:connector-curvature="0" />
    <path
       style="fill:none;stroke:#000000;stroke-width:1px;stroke-linecap:butt;stroke-linejoin:miter;stroke-opacity:1"
       d="m 291.42857,409.50504 37.14286,22.85714 -34.28572,25.71429"
       id="path3836"
       inkscape:connector-curvature="0" />
    <path
       style="fill:none;stroke:#000000;stroke-width:1px;stroke-linecap:butt;stroke-linejoin:miter;stroke-opacity:1"
       d="m 328.57143,512.36218 -37.14286,25.71429 34.28572,31.42857"
       id="path3838"
       inkscape:connector-curvature="0" />
    <text
       xml:space="preserve"
       style="font-size:40.22904968px;font-style:normal;font-weight:normal;line-height:125%;letter-spacing:0px;word-spacing:0px;fill:#000000;fill-opacity:1;stroke:none;font-family:Sans"
       x="105.09342"
       y="479.33398"
       id="text3840"
       sodipodi:linespacing="125%"
       transform="scale(1.0057263,0.99430631)"><tspan
         sodipodi:role="line"
         id="tspan3842"
         x="105.09342"
         y="479.33398">0</tspan></text>
    <text
       xml:space="preserve"
       style="font-size:40.22904968px;font-style:normal;font-weight:normal;line-height:125%;letter-spacing:0px;word-spacing:0px;fill:#000000;fill-opacity:1;stroke:none;font-family:Sans"
       x="570.24969"
       y="473.37109"
       id="text3877"
       sodipodi:linespacing="125%"
       transform="scale(1.0057263,0.99430631)"><tspan
         sodipodi:role="line"
         id="tspan3879"
         x="570.24969"
         y="473.37109">1</tspan></text>
  </g>
</svg>
