<?xml version="1.0" encoding="UTF-8" standalone="no"?>
<!-- Created with Inkscape (http://www.inkscape.org/) -->

<svg
   xmlns:dc="http://purl.org/dc/elements/1.1/"
   xmlns:cc="http://creativecommons.org/ns#"
   xmlns:rdf="http://www.w3.org/1999/02/22-rdf-syntax-ns#"
   xmlns:svg="http://www.w3.org/2000/svg"
   xmlns="http://www.w3.org/2000/svg"
   xmlns:sodipodi="http://sodipodi.sourceforge.net/DTD/sodipodi-0.dtd"
   xmlns:inkscape="http://www.inkscape.org/namespaces/inkscape"
   width="210mm"
   height="297mm"
   id="svg4885"
   version="1.1"
   inkscape:version="0.48.4 r9939"
   sodipodi:docname="新規ドキュメント 4">
  <defs
     id="defs4887" />
  <sodipodi:namedview
     id="base"
     pagecolor="#ffffff"
     bordercolor="#666666"
     borderopacity="1.0"
     inkscape:pageopacity="0.0"
     inkscape:pageshadow="2"
     inkscape:zoom="0.35"
     inkscape:cx="-193.57143"
     inkscape:cy="515.47473"
     inkscape:document-units="px"
     inkscape:current-layer="layer1"
     showgrid="false"
     inkscape:window-width="1280"
     inkscape:window-height="738"
     inkscape:window-x="-8"
     inkscape:window-y="-8"
     inkscape:window-maximized="1" />
  <metadata
     id="metadata4890">
    <rdf:RDF>
      <cc:Work
         rdf:about="">
        <dc:format>image/svg+xml</dc:format>
        <dc:type
           rdf:resource="http://purl.org/dc/dcmitype/StillImage" />
        <dc:title></dc:title>
      </cc:Work>
    </rdf:RDF>
  </metadata>
  <g
     inkscape:label="レイヤー 1"
     inkscape:groupmode="layer"
     id="layer1">
    <path
       style="fill:none;stroke:#ff0000;stroke-width:4;stroke-linecap:butt;stroke-linejoin:miter;stroke-opacity:1;stroke-miterlimit:4;stroke-dasharray:none"
       d="m 342.89254,500.969 362.78636,2.78636 -3.35914,-2.78636"
       id="path4893"
       inkscape:connector-curvature="0" />
    <path
       style="fill:none;stroke:#000000;stroke-width:1px;stroke-linecap:butt;stroke-linejoin:miter;stroke-opacity:1"
       d="m 397.14286,475.21933 260,2.85714"
       id="path4897"
       inkscape:connector-curvature="0" />
    <path
       style="fill:none;stroke:#000000;stroke-width:1px;stroke-linecap:butt;stroke-linejoin:miter;stroke-opacity:1"
       d="m 397.14286,528.07647 260,2.85714"
       id="path4897-1"
       inkscape:connector-curvature="0" />
    <path
       style="fill:none;stroke:#000000;stroke-width:1px;stroke-linecap:butt;stroke-linejoin:miter;stroke-opacity:1"
       d="m 397.14286,532.36218 c 0,6.66667 0,13.33334 0,20 0,0.95238 0.95238,2.85715 0,2.85715 -0.95238,0 0.95238,-2.85715 0,-2.85715 -2.18797,0 -5.69382,8.55096 -5.71429,8.57143 -1.34687,1.34687 -3.90727,-0.60234 -5.71428,0 -2.02031,0.67344 -3.69398,2.18371 -5.71429,2.85714 -1.612,0.53734 -6.69398,0 -8.57143,0 -4.7619,0 -9.52381,0 -14.28571,0 -17.14286,0 -34.28572,0 -51.42857,0 -6.66667,0 -13.33334,0 -20,0 -0.95239,0 -1.90477,0 -2.85715,0 -0.95238,0 -2.43122,0.85184 -2.85714,0 -0.85184,-1.70367 0.60234,-3.90727 0,-5.71428 -2.02714,-6.08143 -4.58883,-0.20208 -8.57143,-2.85714 -1.77192,-1.18129 -1.35129,-4.20844 -2.85714,-5.71429 -0.67344,-0.67344 -2.18371,0.67343 -2.85714,0 -4.28572,-4.28571 8.57142,-2.85714 0,-8.57143 -2.37729,-1.58486 -5.86091,0.90351 -8.57143,0 -0.90351,-0.30117 0.42591,-2.00531 0,-2.85714 -0.60234,-1.20468 -2.25481,-1.65247 -2.85715,-2.85714 -0.85183,-1.70368 0.85184,-4.01062 0,-5.71429 -0.60233,-1.20468 -2.43122,-1.57939 -2.85714,-2.85714 -1.27748,-3.83244 1.01751,-10.21569 0,-14.28572 -0.73044,-2.92177 -2.1267,-5.64965 -2.85714,-8.57143 -0.23099,-0.92394 0.42592,-2.0053 0,-2.85714 -0.60234,-1.20468 -2.43123,-1.57939 -2.85714,-2.85714 -0.54571,-1.63712 0,-11.60338 0,-14.28572 0,-1.28673 -0.43477,-7.7019 0,-8.57142 0.60233,-1.20468 2.11003,-1.73648 2.85714,-2.85715 1.18128,-1.77192 1.67586,-3.94236 2.85714,-5.71428 0.74711,-1.12067 1.90476,-1.90477 2.85714,-2.85715 0.95239,-0.95238 1.73648,-2.11003 2.85715,-2.85714 1.77192,-1.18128 3.94236,-1.67586 5.71428,-2.85714 1.12067,-0.74711 1.65247,-2.25481 2.85715,-2.85714 0.85183,-0.42592 2.0053,0.42591 2.85714,0 3.27548,-1.63774 3.97431,-5.96147 5.71428,-8.57143 1.86801,-2.80201 5.59739,-4.72294 8.57143,-5.71429 0.90351,-0.30117 2.00531,0.42592 2.85715,0 6.825,-3.4125 -1.11072,-2.30178 5.71428,-5.71428 0.85184,-0.42592 2.00531,0.42591 2.85714,0 3.07134,-1.53567 5.5001,-4.17862 8.57143,-5.71429 0.85184,-0.42592 1.9332,0.23099 2.85715,0 2.92177,-0.73044 5.61822,-2.2665 8.57142,-2.85714 1.86778,-0.37356 3.90727,0.60234 5.71429,0 1.27775,-0.42592 1.57939,-2.43123 2.85714,-2.85715 1.94372,-0.6479 12.77075,0.75749 14.28572,0 1.20467,-0.60233 1.65246,-2.2548 2.85714,-2.85714 0.85184,-0.42592 1.90476,0 2.85714,0 1.90476,0 3.90727,0.60234 5.71429,0 1.27775,-0.42592 1.65246,-2.2548 2.85714,-2.85714 1.8935,-0.94675 9.03393,0.79821 11.42857,0 2.02031,-0.67344 3.69398,-2.18371 5.71429,-2.85714 1.37354,-0.45785 19.57999,0 20,0 4.87009,0 5.11195,-0.30117 11.42857,2.85714 0.91442,0.45721 4.79986,5.25707 5.71429,5.71428 0.85183,0.42592 2.0053,-0.42591 2.85714,0 1.20468,0.60234 2.11003,1.73648 2.85714,2.85715 3.15576,4.73363 2.85714,6.48912 2.85714,11.42857 0,2.76351 0.4237,16.29547 0,17.14286 -0.60233,1.20467 -2.2548,1.65246 -2.85714,2.85714 -0.42592,0.85183 0.42592,2.00531 0,2.85714 -1.20468,2.40936 -4.22007,3.47296 -5.71428,5.71429 -1.18129,1.77192 -1.3513,4.20844 -2.85715,5.71428 -0.67343,0.67344 0,-1.90476 0,-2.85714 0,-0.95238 0,-1.90476 0,-2.85714"
       id="path4919"
       inkscape:connector-curvature="0" />
    <path
       style="fill:none;stroke:#000000;stroke-width:1.06472635px;stroke-linecap:butt;stroke-linejoin:miter;stroke-opacity:1"
       d="m 653.43335,478.07788 c 2.15959,-5.71358 4.60263,-11.34983 6.47876,-17.14075 0.29664,-0.91562 0,-1.90452 0,-2.85679 0,-6.66585 0,-13.3317 0,-19.99754 0,-4.76132 1.05883,-9.61509 0,-14.28396 -0.47352,-2.08797 -2.76586,-3.6256 -3.23937,-5.71358 -0.6353,-2.80131 0.78566,-5.79887 0,-8.57037 -0.37038,-1.3065 -2.9399,-1.53624 -3.23939,-2.85679 -0.84705,-3.73509 0.84706,-7.69208 0,-11.42716 -0.29948,-1.32056 -2.55645,-1.65227 -3.23937,-2.8568 -0.4829,-0.85173 0.26189,-1.93297 0,-2.85679 -0.82816,-2.92141 -2.41122,-5.64897 -3.23938,-8.57038 -0.26189,-0.92382 0.4829,-2.00506 0,-2.85679 -1.74111,-3.07096 -4.73764,-5.49941 -6.47875,-8.57037 -1.52706,-2.69341 -1.71232,-5.87697 -3.23938,-8.57038 -0.68292,-1.20453 -2.55645,-1.65225 -3.23937,-2.85679 -0.4829,-0.85173 0.64788,-2.09498 0,-2.85679 -2.74871,-3.23209 -7.36113,-5.10601 -9.71813,-8.57037 -1.1111,-1.63312 0.68292,-3.90679 0,-5.71359 -0.9658,-2.55519 -4.78464,-3.47253 -6.47876,-5.71358 -1.33931,-1.77171 -1.53207,-4.20792 -3.23937,-5.71358 -1.70731,-1.50567 -4.46978,-1.67566 -6.47876,-2.85679 -4.17485,-2.45453 -8.7321,-8.6324 -12.9575,-11.42717 -3.11459,-2.06006 -6.60353,-3.65353 -9.71814,-5.71358 -1.22163,-0.80802 -2.15958,-1.90453 -3.23937,-2.85679 -5.18121,-4.56929 -9.24532,-8.36189 -16.19688,-11.42717 -3.05411,-1.3467 -6.66401,-1.51009 -9.71813,-2.85679 -2.73169,-1.20453 -3.85987,-4.32784 -6.47876,-5.71358 -4.1408,-2.19106 -8.81668,-3.52253 -12.9575,-5.71359 -2.32146,-1.22837 -7.75147,-7.99225 -9.71813,-8.57037 -7.69803,-2.26296 -5.88344,3.38179 -12.95751,-2.85679 -1.7073,-1.50567 -1.2304,-4.53245 -3.23937,-5.71359 -1.79688,-1.05644 -4.38365,0.46192 -6.47876,0 -2.34239,-0.51644 -4.23695,-2.06598 -6.47874,-2.85679 -3.17039,-1.11837 -6.66402,-1.51008 -9.71813,-2.85679 -1.36585,-0.60226 -1.87354,-2.25453 -3.23938,-2.85679 -0.9658,-0.42586 -2.15959,0 -3.23938,0 -3.23938,-1.90453 -6.60353,-3.65353 -9.71813,-5.71358 -1.22164,-0.80802 -1.79069,-2.43093 -3.23938,-2.85679 -2.04875,-0.60227 -4.38364,0.46191 -6.47874,0 -2.34241,-0.51644 -4.18817,-2.18344 -6.47876,-2.8568 -1.02438,-0.30113 -2.27358,0.42587 -3.23937,0 -1.36585,-0.60226 -1.87354,-2.25452 -3.23939,-2.85679 -1.91129,-0.84278 -7.48998,0.655 -9.71812,0 -2.29059,-0.67335 -4.18817,-2.18344 -6.47876,-2.85679 -2.22815,-0.655 -7.80683,0.84278 -9.71813,0 -3.48222,-1.53548 -6.2359,-4.1781 -9.71813,-5.71358 -1.87091,-0.82497 -16.2581,0.7007 -19.43625,0 -2.3424,-0.51644 -4.11116,-2.43919 -6.47876,-2.85679 -7.44916,-1.31388 -18.29206,1.12044 -25.91501,0 -3.36814,-0.49506 -6.40548,-2.12644 -9.71813,-2.85679 -1.04755,-0.23096 -2.15958,0 -3.23937,0 -2.15959,0 -4.31918,0 -6.47876,0 -6.47876,0 -12.9575,0 -19.43626,0 -17.27667,0 -28.83906,-2.85714 -46.11573,-2.85714 -7.55855,0 -20.83139,2.85714 -28.38992,2.85714 -2.15959,0 -4.38366,-0.46193 -6.47876,0 -3.31265,0.73035 -6.40548,2.12644 -9.71813,2.85679 -1.96294,0.43277 -6.14669,-0.5857 -6.47875,0 -0.9658,1.70346 0.96579,4.01011 0,5.71358 -0.4829,0.85173 -2.27358,-0.42586 -3.23938,0 -7.16244,3.15827 -1.00525,1.77305 -3.23938,5.71358 -6.74075,11.88929 0.22364,-3.05401 -6.47874,2.85679 -2.75295,2.42781 -4.14281,5.82363 -6.47876,8.57038 -1.83246,2.15472 -5.11292,3.30452 -6.47876,5.71358 -1.52706,2.69341 -1.19061,6.16131 -3.23937,8.57038 -1.44869,1.70346 -4.77146,1.35112 -6.47875,2.85679 -0.76353,0.67334 0.34146,1.95339 0,2.85679 -1.26235,3.33978 -5.2164,8.08738 -6.47876,11.42716 -0.34146,0.9034 0.34146,1.9534 0,2.8568 -3.13319,8.28945 -2.03114,3.34061 -6.47875,8.57037 -2.15959,2.85679 -4.31917,5.71358 -6.47875,8.57037 0,0.95226 0.4829,2.00506 0,2.8568 -0.68292,1.20452 -2.39233,1.73627 -3.23937,2.85679 -3.72228,4.92398 -3.23939,4.31828 -3.23939,8.57037 0,0.95227 0.4829,2.00507 0,2.85679 -0.68292,1.20453 -2.75647,1.5792 -3.23937,2.85679 -0.68292,1.8068 0.9658,4.01013 0,5.71359 -0.4829,0.85173 -2.34093,-0.52823 -3.23938,0 -2.54117,1.49403 -4.78463,3.47253 -6.47875,5.71358 -1.19792,1.58466 0.9658,4.01012 0,5.71358 -0.68293,1.20453 -2.15959,1.90453 -3.23938,2.85679 0,2.8568 0.78567,5.79889 0,8.57038 -0.37037,1.3065 -2.39232,1.73626 -3.23937,2.85679 -15.0734,19.93974 14.37426,-14.04534 -9.71813,14.28396 -0.91623,1.07737 -2.55646,1.65226 -3.23939,2.85679 -0.48288,0.85173 0.34147,1.9534 0,2.85679 -0.76352,2.02006 -2.47584,3.69353 -3.23937,5.71358 -3.82423,10.11773 9.03416,-9.46956 -3.23937,8.57038 -2.00307,2.94415 -4.14281,5.82362 -6.47876,8.57037 -0.91623,1.07736 -2.75647,1.5792 -3.23937,2.85679 -0.97181,2.57112 0.97181,5.99926 0,8.57038 -6.70239,17.73241 0.262,-9.4946 -6.47876,14.28395 -1.43972,5.07875 4.31917,3.80906 0,11.42718 -1.07979,1.90452 -4.77144,1.35112 -6.47875,2.85678 -1.52705,1.34671 0.96579,4.01012 0,5.71358 -0.68292,1.20453 -2.86901,1.5503 -3.239371,2.8568 -4.093508,14.44017 2.042341,4.22264 0,11.42716 -0.828171,2.92141 -2.411214,5.64897 -3.239385,8.57038 -1.619686,5.71358 3.239385,0 0,8.57038 -0.482889,1.27759 -2.756473,1.57919 -3.239373,2.85678 -1.619687,4.28519 1.619687,9.99877 0,14.28396 -0.4829,1.2776 -2.556451,1.65226 -3.239373,2.8568 -0.482901,0.85172 0,1.90452 0,2.85678 0,2.85679 0,5.71358 0,8.57038 0,4.76131 0,9.52264 0,14.28395 0,0.95227 0.763522,2.18344 0,2.85679 -1.707306,1.50567 -4.771453,1.35114 -6.478758,2.8568 -0.333695,0.29428 0.269182,13.57177 0,14.28395 -0.482901,1.2776 -2.556451,1.65227 -3.239373,2.85679 -0.597832,1.05445 0,14.65227 0,17.14075 0,7.61812 0,15.23623 0,22.85433 0,2.8568 0,5.71359 0,8.57038 0,1.90452 -0.423536,3.84605 0,5.71359 0.669656,2.95284 2.411213,5.64896 3.239373,8.57037 1.619686,5.71358 -3.239373,0 0,8.57038 0.4829,1.27759 2.392325,1.73625 3.239373,2.85679 1.339325,1.7717 2.475851,3.69352 3.239385,5.71357 1.024383,2.7102 -0.785666,5.79889 0,8.57038 0.585598,2.06575 2.475839,3.69352 3.239373,5.71359 0.341461,0.90339 -0.4829,2.00506 0,2.85678 1.741115,3.07097 4.737643,5.49942 6.478758,8.57038 1.527061,2.69341 1.712321,5.87697 3.239371,8.57038 3.66291,6.46059 5.16252,7.40959 9.71813,11.42716 1.07979,0.95226 2.39232,1.73627 3.23938,2.85679 2.67864,3.54341 3.58136,8.02024 6.47875,11.42716 2.99365,3.52013 10.20821,7.7903 12.95751,11.42718 1.97274,2.60964 2.76507,6.93282 6.47875,8.57036 0.9658,0.42587 2.215,-0.30113 3.23938,0 2.29058,0.67336 4.18817,2.18344 6.47875,2.8568 1.02438,0.30114 2.215,-0.30113 3.23937,0 7.27285,2.13796 8.80427,5.31062 16.19689,8.57038 6.10823,2.69341 13.58026,2.61495 19.43626,5.71358 12.76252,6.75312 -0.74462,6.08027 16.19688,8.57037 3.1953,0.46965 6.47876,0 9.71813,0 4.31916,1.90453 8.29868,4.59306 12.9575,5.71359 7.36625,1.7717 15.30939,1.08507 22.67564,2.85679 4.65882,1.12052 8.24352,4.78975 12.9575,5.71357 5.2704,1.03289 10.83095,-0.52579 16.19689,0 36.22536,3.54968 -6.13783,2.8568 22.67564,2.8568 4.31916,0 8.63833,0 12.9575,0 3.23938,0 6.60339,-0.78482 9.71813,0 4.64318,1.16994 8.31433,4.54364 12.95751,5.71358 3.11474,0.78482 6.47874,0 9.71813,0 2.15958,0 4.31916,0 6.47875,0 12.9575,0 25.915,0 38.87252,0 4.31916,0 8.63833,0 12.95751,0 1.07979,0 2.47583,0.67336 3.23937,0 1.7073,-1.50566 1.53208,-4.20792 3.23937,-5.71358 0.76354,-0.67335 2.215,0.30114 3.23939,0 2.29058,-0.67335 4.18816,-2.18344 6.47874,-2.8568 2.04877,-0.60225 4.54717,0.85174 6.47876,0 1.36583,-0.60225 1.87353,-2.25452 3.23937,-2.85678 0.9658,-0.42587 2.27359,0.42586 3.23938,0 14.82535,-6.53721 -13.74602,1.18406 9.71813,-5.71358 1.02438,-0.30113 2.27358,0.42586 3.23937,0 4.96136,-2.1877 2.53326,-5.09086 6.47876,-8.57038 0.76353,-0.67335 2.27358,0.42586 3.23937,0 1.36585,-0.60226 2.15958,-1.90453 3.23939,-2.8568 2.15958,0 4.42999,0.60227 6.47874,0 2.45801,-0.72256 9.98034,-10.11438 12.95751,-11.42716 0.9658,-0.42587 2.15958,0 3.23938,0 2.15958,-0.95226 4.54716,-1.5792 6.47875,-2.85679 3.66494,-2.42407 5.90637,-6.32932 9.71813,-8.57038 2.00897,-1.18113 4.46978,-1.67565 6.47876,-2.85678 4.12393,-2.42459 8.96596,-8.78707 12.9575,-11.42717 3.86318,-2.55519 8.93955,-3.35131 12.95751,-5.71359 1.27058,-0.74701 2.15958,-1.90452 3.23937,-2.85678 1.07979,-1.90453 1.30778,-4.43599 3.23937,-5.71359 2.73169,-1.80679 6.87701,-1.18641 9.71813,-2.85679 3.81177,-2.24105 5.90637,-6.32932 9.71814,-8.57038 1.82396,-1.07235 18.47939,-4.86973 19.43626,-5.71357 2.41449,-2.12933 1.10629,-6.21894 3.23937,-8.57038 2.4321,-2.68107 6.72726,-3.51556 9.71813,-5.71359 4.69248,-3.44855 8.63834,-7.61811 12.95751,-11.42716 1.07979,-0.95226 1.87354,-2.25452 3.23937,-2.85679 3.05411,-1.3467 7.30364,-0.72747 9.71813,-2.8568 2.41449,-2.12932 1.71233,-5.87695 3.23939,-8.57036 1.36583,-2.40907 4.78462,-3.47254 6.47874,-5.71359 1.33932,-1.77171 1.53208,-4.20792 3.23938,-5.71359 3.94551,-3.47952 7.23745,-1.33818 9.71813,-5.71357 0.4829,-0.85174 -0.48289,-2.00507 0,-2.85679 1.36584,-2.40907 5.51295,-3.15839 6.47875,-5.71359 0,-13.00493 -1.52705,-0.16338 3.23938,-8.57038 0.49292,-0.86941 0,-7.28379 0,-8.57037 0,-5.71358 0,-11.42717 0,-17.14074 0,-1.87722 0.60921,-6.95859 0,-8.57038 -3.72228,-9.84797 -3.23938,-2.11621 -3.23938,-8.57038"
       id="path4921"
       inkscape:connector-curvature="0"
       sodipodi:nodetypes="cssssscssssssssssssssssssssssssssssscsssscsssssssssssssssscssssssscsssccssssssssscsssccssssssssssssssssssssssssssssscssssssssssssssssscssssssssssssssscssssssscsscssssscsssssssssssssscssssc" />
    <path
       style="fill:none;stroke:#000000;stroke-width:1px;stroke-linecap:butt;stroke-linejoin:miter;stroke-opacity:1"
       d="m 225.71429,509.50504 20,-28.57143 20,31.42857 0,0"
       id="path5445"
       inkscape:connector-curvature="0" />
    <path
       style="fill:none;stroke:#000000;stroke-width:1px;stroke-linecap:butt;stroke-linejoin:miter;stroke-opacity:1"
       d="M 65.714286,486.6479 91.428571,515.21933 120,483.79075"
       id="path5447"
       inkscape:connector-curvature="0" />
    <path
       style="fill:none;stroke:#000000;stroke-width:1px;stroke-linecap:butt;stroke-linejoin:miter;stroke-opacity:1"
       d="M 522.85714,452.36218 557.14286,478.07647 520,495.21933"
       id="path5449"
       inkscape:connector-curvature="0" />
    <path
       style="fill:none;stroke:#000000;stroke-width:1px;stroke-linecap:butt;stroke-linejoin:miter;stroke-opacity:1"
       d="m 508.57143,512.36218 -57.14286,17.14286 54.28572,22.85714"
       id="path5451"
       inkscape:connector-curvature="0" />
    <text
       xml:space="preserve"
       style="font-size:40px;font-style:normal;font-weight:normal;line-height:125%;letter-spacing:0px;word-spacing:0px;fill:#000000;fill-opacity:1;stroke:none;font-family:Sans"
       x="348.57144"
       y="186.6479"
       id="text5453"
       sodipodi:linespacing="125%"><tspan
         sodipodi:role="line"
         id="tspan5455"
         x="348.57144"
         y="186.6479">C_1</tspan></text>
    <text
       xml:space="preserve"
       style="font-size:40px;font-style:normal;font-weight:normal;line-height:125%;letter-spacing:0px;word-spacing:0px;fill:#000000;fill-opacity:1;stroke:none;font-family:Sans"
       x="335.68109"
       y="374.37668"
       id="text5453-7"
       sodipodi:linespacing="125%"><tspan
         sodipodi:role="line"
         id="tspan5455-4"
         x="335.68109"
         y="374.37668">C_eps</tspan></text>
    <text
       xml:space="preserve"
       style="font-size:40px;font-style:normal;font-weight:normal;line-height:125%;letter-spacing:0px;word-spacing:0px;fill:#000000;fill-opacity:1;stroke:none;font-family:Sans"
       x="340"
       y="472.36218"
       id="text5478"
       sodipodi:linespacing="125%"><tspan
         sodipodi:role="line"
         id="tspan5480"
         x="340"
         y="472.36218">0</tspan></text>
    <text
       xml:space="preserve"
       style="font-size:40px;font-style:normal;font-weight:normal;line-height:125%;letter-spacing:0px;word-spacing:0px;fill:#000000;fill-opacity:1;stroke:none;font-family:Sans"
       x="682.85712"
       y="478.07645"
       id="text5482"
       sodipodi:linespacing="125%"><tspan
         sodipodi:role="line"
         id="tspan5484"
         x="682.85712"
         y="478.07645">1</tspan></text>
    <text
       xml:space="preserve"
       style="font-size:40px;font-style:normal;font-weight:normal;line-height:125%;letter-spacing:0px;word-spacing:0px;fill:#000000;fill-opacity:1;stroke:none;font-family:Sans"
       x="514.28571"
       y="398.07648"
       id="text5486"
       sodipodi:linespacing="125%"><tspan
         sodipodi:role="line"
         id="tspan5488"
         x="514.28571"
         y="398.07648">L_+</tspan></text>
    <text
       xml:space="preserve"
       style="font-size:40px;font-style:normal;font-weight:normal;line-height:125%;letter-spacing:0px;word-spacing:0px;fill:#000000;fill-opacity:1;stroke:none;font-family:Sans"
       x="522.85712"
       y="589.50507"
       id="text5490"
       sodipodi:linespacing="125%"><tspan
         sodipodi:role="line"
         id="tspan5492"
         x="522.85712"
         y="589.50507">L_-</tspan></text>
  </g>
</svg>
